<svg width="122" height="107" viewBox="0 0 122 107" fill="none" xmlns="http://www.w3.org/2000/svg">
<path d="M81.5457 30.0871C74.3527 23.8752 63.5008 23.4507 56.7928 25.9977C50.9442 28.2334 48.6574 30.5541 46.1765 32.6058C45.9409 32.7898 45.4697 33.186 45.0124 33.186C44.555 33.186 44.0699 32.8039 43.8482 32.6058C41.3673 30.5541 39.0805 28.2193 33.2319 25.9977C26.5239 23.4365 15.6582 23.861 8.47899 30.0871C1.47999 36.1434 -0.432607 44.6193 0.274222 52.416C0.842457 58.6845 3.01838 63.8493 5.7764 68.2642C7.21778 70.5848 10.6965 74.8723 12.7754 77.1646C21.0772 86.3056 28.0207 92.56 35.3524 98.8144C37.6114 100.739 43.2384 105.408 43.5433 105.635C43.9175 105.904 44.4025 106.3 44.9985 106.3C45.5944 106.3 46.0795 105.904 46.4537 105.635C46.7725 105.408 52.3856 100.739 54.6446 98.8144C61.9901 92.56 68.9198 86.3056 77.2216 77.1646C79.3005 74.8723 82.7792 70.5707 84.2206 68.2642C86.9786 63.8493 89.1545 58.6845 89.7228 52.416C90.4296 44.6193 88.5309 36.1434 81.518 30.0871H81.5457Z" fill="white"/>
<path d="M117.503 25.9472L102.343 39.9914C101.952 40.3537 101.922 40.9712 102.277 41.3705L104.298 43.6445C104.653 44.0438 105.258 44.0738 105.649 43.7115L120.809 29.6673C121.2 29.3049 121.229 28.6874 120.874 28.2881L118.854 26.0141C118.499 25.6148 117.894 25.5848 117.503 25.9472Z" fill="white"/>
<path d="M106.891 13.495L91.7316 27.5392C91.3405 27.9016 91.3111 28.519 91.6661 28.9184L93.687 31.1924C94.0419 31.5917 94.6467 31.6217 95.0378 31.2593L110.198 17.2151C110.589 16.8528 110.618 16.2353 110.263 15.836L108.242 13.562C107.887 13.1626 107.282 13.1327 106.891 13.495Z" fill="white"/>
<path d="M96.2703 1.03408L81.1106 15.0783C80.7194 15.4406 80.6901 16.0581 81.045 16.4574L83.0659 18.7314C83.4208 19.1308 84.0256 19.1607 84.4167 18.7984L99.5765 4.75418C99.9676 4.39183 99.997 3.77436 99.6421 3.37502L97.6211 1.10104C97.2662 0.701706 96.6614 0.671725 96.2703 1.03408Z" fill="white"/>
</svg>
