<svg width="208" height="323" viewBox="0 0 208 323" fill="none" xmlns="http://www.w3.org/2000/svg">
<path d="M61.5785 38.0604C62.158 39.0937 63.9254 41.7882 65.0843 42.3677C66.2239 42.9472 67.4891 44.3186 67.8947 44.8401C68.2907 45.352 69.6717 46.4336 70.8789 47.0227C72.0765 47.6022 73.2934 49.949 73.5735 50.1132C73.8729 50.2871 74.433 49.6014 75.0125 49.3696C75.5919 49.1378 77.0213 48.3362 79.146 49.7173C81.2707 51.0887 80.923 55.6857 80.7588 56.7191C80.585 57.7525 80.8168 59.1336 81.1548 59.066C81.4928 59.0177 82.1399 58.1774 82.9994 57.1441C83.859 56.1107 84.2066 54.5654 84.7185 54.6427C85.2304 54.72 85.7519 58.0905 84.9696 61.5383C84.2066 64.9765 80.8457 66.6087 80.8457 66.6087C80.585 67.3813 81.8695 69.6315 83.8493 75.4745C85.8291 81.3367 84.2839 88.3869 83.8493 90.0287C83.4147 91.6705 83.2505 93.7373 84.197 95.5433C85.1434 97.3493 87.2971 101.908 88.5816 104.235C89.8757 106.563 90.9091 108.118 96.1629 110.088C101.407 112.068 109.085 112.676 113.035 113.874C117.004 115.081 120.703 115.255 123.031 115.429C125.339 115.602 130.612 117.148 134.147 117.582C137.672 118.017 143.525 116.626 143.863 116.539C144.21 116.462 144.635 116.539 145.07 116.713C145.495 116.887 147.648 115.844 147.648 115.844C145.234 115.583 136.021 111.623 134.215 110.851C132.409 110.078 132.157 108.958 132.061 108.185C131.974 107.413 132.833 106.727 134.485 106.379C136.117 106.032 135.943 105.694 136.629 104.573C137.324 103.453 139.294 102.68 140.251 102.68C141.207 102.68 142.23 102.168 142.82 100.874C143.438 99.5802 145.495 98.7303 145.92 98.6434C146.354 98.5565 147.986 97.61 149.107 97.3493C150.237 97.0982 152.12 98.2185 152.893 98.2185C153.665 98.2185 154.872 97.7839 155.655 97.697C156.418 97.61 157.297 97.9674 157.635 98.0446C157.973 98.1316 158.156 97.7839 158.059 97.272C157.973 96.7602 157.721 94.1719 157.721 94.1719C155.906 92.617 153.742 93.3123 153.327 93.5731C152.883 93.8242 152.197 94.8576 149.966 95.0218C147.716 95.2053 145.659 94.2491 144.973 93.5731C144.278 92.8777 144.703 84.9584 144.886 84.2727C145.05 83.5773 146.161 83.5773 147.542 84.0023C148.923 84.4272 150.642 83.5773 152.719 82.9689C154.776 82.3701 157.963 82.882 158.571 83.6643C159.17 84.4369 159.006 89.8645 159.267 91.3325C159.518 92.8005 159.518 97.3493 159.518 97.3493C162.019 95.3694 165.544 96.4125 166.24 96.5767C166.916 96.7602 167.263 97.0113 169.34 97.1078C171.397 97.1851 173.637 98.2281 174.062 98.5662C174.497 98.9042 175.443 99.5995 176.129 100.208C176.815 100.807 177.674 102.526 178.022 103.047C178.37 103.559 180.185 103.994 180.185 103.994C183.788 103.559 184.3 105.452 183.71 106.659C183.112 107.867 182.069 108.987 179.229 111.15C176.39 113.294 173.367 113.816 173.367 113.816C172.942 115.187 170.788 117.35 169.929 117.428C169.069 117.505 168.297 118.278 167.775 118.799C167.254 119.321 165.11 120.354 163.98 120.441C162.869 120.518 161.15 121.474 159.508 122.923C157.876 124.391 155.809 124.816 152.786 125.251C149.773 125.675 146.238 128.264 141.516 131.876C136.783 135.497 123.523 137.216 120.858 137.294C118.183 137.381 119.052 137.728 119.39 138.066C119.738 138.404 120.858 139.795 121.968 140.906C123.089 142.036 134.456 150.467 138.763 152.621C143.071 154.784 144.886 159.767 144.886 159.767C145.997 161.071 153.404 169.242 155.21 171.221C157.016 173.201 157.963 175.79 156.408 178.977C154.863 182.154 147.89 184.742 144.973 185.602C142.037 186.461 134.553 189.214 134.553 189.214C134.553 189.214 139.459 192.227 141.178 194.468C142.897 196.708 144.442 196.882 147.716 200.755C150.99 204.628 148.759 206.52 144.626 210.306C140.492 214.102 133.345 216.507 133.345 216.507C133.345 216.507 133.954 218.226 134.639 218.911C135.325 219.597 137.131 222.514 137.305 223.731C137.469 224.938 139.98 226.396 141.863 226.734C143.766 227.072 145.562 225.189 148.662 222.958C151.753 220.717 153.733 215.811 154.08 214.527C154.419 213.213 154.332 209.35 157.268 209.872C160.184 210.384 163.719 219.259 164.076 222.35C164.414 225.45 162.521 230.617 154.08 237.425C145.649 244.224 142.636 245.335 138.676 245.432C134.707 245.509 130.593 240.004 129.289 238.623C128.005 237.242 126.102 234.489 126.72 232.77C127.319 231.042 127.068 229.844 126.807 229.245C126.546 228.646 124.74 227.082 124.306 225.797C123.881 224.513 120.433 221.152 119.226 220.544C118.028 219.945 112.34 211.774 109.925 207.718C107.52 203.681 106.487 203.411 106.487 203.411C105.357 205.651 102.17 206.859 99.0699 210.654C95.9698 214.44 89.2577 220.717 84.7765 219.945C80.3049 219.172 69.7104 205.651 68.0782 202.725C66.4364 199.799 62.0518 203.246 60.3327 203.932C58.6136 204.628 57.3195 203.932 57.3195 203.932C55.2527 206.52 57.0684 209.273 58.3528 210.306C59.6373 211.349 64.3696 218.573 66.4364 220.64C68.5031 222.707 73.8439 222.185 75.563 221.664C77.282 221.152 77.7166 219.771 78.7404 219.771C79.7641 219.771 81.7632 221.316 79.8703 226.831C77.9677 232.336 73.2354 231.988 71.526 231.737C69.7973 231.486 65.403 231.138 61.0184 230.955C56.6241 230.79 53.5336 227.516 52.0657 224.59C50.6073 221.664 48.7917 218.998 46.9084 216.323C45.0058 213.658 43.5379 211.069 41.9926 208.568C40.4474 206.076 40.6116 202.29 42.5045 199.963C44.3974 197.635 46.638 197.288 48.0191 196.95C49.4001 196.602 51.3799 195.994 53.6109 193.936C55.8515 191.87 58.7005 190.315 59.3862 190.064C60.0816 189.803 60.8542 189.803 61.453 189.368C62.0518 188.943 64.3793 186.268 73.5928 181.439C82.8063 176.62 87.7124 171.54 87.7124 171.54C81.1645 158.367 76.5963 153.287 76.5963 153.287C75.9106 153.808 72.7236 154.842 70.7437 153.287C68.7639 151.742 70.483 147.956 71.3522 146.401C72.2117 144.856 70.058 144.508 68.7639 144.334C67.4698 144.16 66.9579 145.02 64.0316 145.619C61.1053 146.227 56.8752 145.879 52.0657 145.194C47.2368 144.508 44.494 142.354 41.9057 140.635C39.3271 138.916 31.3981 133.228 31.8327 129.181C32.2673 125.135 34.5948 122.295 37.2603 118.413C39.9259 114.54 45.6915 108.263 48.0191 104.38C50.3466 100.507 52.3264 98.1798 53.8717 97.2334C55.4265 96.2966 55.3396 95.4274 55.5907 94.394C55.8515 93.3606 54.1324 90.5212 52.4133 87.3342C50.6846 84.1471 49.1394 82.4281 47.9321 81.9935C46.7249 81.5685 44.5809 81.0373 40.1866 74.9336C35.7923 68.8203 36.9996 66.232 37.2603 65.7201C37.5114 65.1986 38.6414 64.3391 36.7485 63.3926C34.8459 62.4365 34.5079 58.6603 35.5412 57.9746C36.5746 57.2889 36.7774 56.6805 36.7774 56.6805C23.1214 56.9026 23.7008 40.4941 24.8404 35.4334C25.9801 30.3824 25.2944 25.457 22.8896 22.241C20.4751 19.0346 20.8228 14.2057 22.3198 10.9897C23.8071 7.82194 30.3454 -0.676878 42.9777 0.935966C55.6004 2.53915 56.2861 12.0714 55.6004 16.9968C55.1851 20.0293 55.0306 23.9504 54.4511 27.0988C54.1614 28.6827 54.4511 29.8609 54.4511 29.8609C56.5758 31.3482 60.9894 37.027 61.5689 38.0604M66.1177 132.436C67.7788 131.431 64.4566 121.687 63.6646 121.387C63.23 121.233 61.4916 122.469 59.7532 123.773C58.0245 125.067 55.3493 126.303 54.7022 126.661C54.0455 127.018 54.1131 128.467 54.9919 129.191C55.8611 129.906 57.3774 132.426 59.1061 133.083C59.1061 133.083 64.1958 133.614 66.1177 132.436Z" fill="#1A0B08"/>
<path d="M65.4126 48.5393C63.9253 48.2206 63.6935 47.3611 62.834 47.2452C62.2352 47.1679 57.5029 46.8975 54.4897 48.2786C51.4764 49.65 49.2358 53.3586 47.0822 54.3823C44.9285 55.4157 43.2963 56.6229 42.4368 57.4824C41.5772 58.342 39.0855 59.6361 38.0522 59.2981C38.0522 59.2981 37.6176 61.7898 41.1426 62.3982C44.6774 63.0067 46.1936 64.0593 46.4254 64.9189C46.6476 65.7881 45.6818 66.0778 44.9381 65.7881C44.1945 65.4887 42.1277 64.465 40.6404 65.2666C39.1435 66.0778 40.5149 69.7478 41.0944 70.7232C41.6642 71.6986 44.7063 76.8655 47.1884 78.3045C49.6511 79.7435 50.8487 80.4196 53.0893 83.8094C55.3299 87.1897 57.5125 90.1256 58.8936 91.0334C60.2746 91.9606 65.2098 95.3505 67.9139 96.0941C70.6084 96.8377 77.1564 94.713 79.9571 91.8447C82.7675 88.9763 82.0239 80.8252 81.8018 77.7251C81.57 74.6249 79.0493 67.3333 78.5278 67.0532C78.0159 66.7635 75.0317 66.0778 73.8245 67.1209C72.6172 68.1446 68.9473 73.0121 67.6821 73.4853C67.6821 73.4853 69.633 74.9823 72.1633 73.833C74.684 72.6837 75.0896 72.336 75.2635 72.1719C75.4373 72.0077 76.0071 72.2298 76.0071 72.7996C76.0071 73.3694 75.8912 75.0402 75.6594 75.4458C75.4373 75.8515 74.5681 77.4546 71.2362 77.5705C67.9139 77.6768 65.4995 74.0744 65.4995 74.0744C65.4995 74.0744 60.7382 74.8181 58.1596 71.9401C55.581 69.0717 54.084 66.7828 53.6301 66.551C53.1665 66.3193 52.5291 65.8074 52.8768 65.112C53.2245 64.4167 55.1754 65.4597 55.919 65.8557C56.6626 66.2517 58.1596 67.2367 59.0771 67.4685C60.0042 67.6907 62.8629 68.0383 64.7655 67.2947C66.6488 66.5607 69.3529 65.17 72.511 64.774C75.6691 64.378 77.2819 62.659 78.3636 58.6317C79.4549 54.6237 78.5278 52.0451 77.7841 51.4656C77.0502 50.8862 76.8667 50.5482 75.4953 51.9872C74.1142 53.4262 72.3951 55.3094 68.8894 55.5992C65.3836 55.8792 64.3019 54.334 64.0701 53.4745C63.8384 52.6053 64.6979 52.895 64.9876 52.9529C65.2774 53.0109 66.3107 53.4745 68.2616 52.6632C70.2125 51.8713 70.2704 50.5482 69.9324 49.679C69.5847 48.8194 69.1888 48.3076 68.3196 48.4717C67.46 48.6456 66.4942 48.7808 65.4512 48.5587" fill="#D6B569"/>
<path d="M54.7406 53.7449C53.6107 54.3726 51.6309 56.1497 51.1769 56.2656C50.5685 56.4201 49.6607 56.1207 49.284 56.0338C48.946 55.9469 48.7722 55.3481 48.8204 55.1742C48.8881 55.0101 49.5061 54.4306 49.7959 53.6193C50.0856 52.8177 51.3991 50.9731 53.5238 50.5772C55.6485 50.1715 56.2762 50.4323 57.5414 51.0407C58.7679 51.6298 59.5599 52.9336 58.7776 53.2813C58.0919 53.5807 56.6143 52.7212 54.7213 53.7546" fill="#1A0B08"/>
<path d="M55.7716 57.4142C54.8637 57.9357 53.7048 58.2351 53.1446 58.2351C52.5845 58.2351 51.9471 58.2351 52.0726 59.056C52.1982 59.8769 53.2799 60.6013 54.4388 60.8234C55.5977 61.0359 57.2782 60.7751 58.186 59.79C59.0938 58.7953 59.3063 58.1868 59.3063 57.5977C59.3063 57.0086 59.316 56.3229 59.3546 56.178C59.3932 55.9945 59.229 55.1446 58.4081 55.3571C57.5872 55.5696 57.2009 56.6126 55.7716 57.4239" fill="#1A0B08"/>
<path d="M70.4152 98.8466C66.3976 98.8466 59.9752 97.9194 58.2464 98.2768C56.5177 98.6244 53.997 99.8799 52.7318 102.41C51.4667 104.941 45.3823 113.662 42.8616 116.404C40.3313 119.166 35.1161 126.448 35.1644 128.351C35.2127 129.732 35.1644 130.592 36.4875 132.079C37.8106 133.576 43.2576 137.14 44.6966 138.173C46.1356 139.197 47.507 140.471 47.9706 140.752C48.4245 141.041 51.4763 142.76 52.8477 141.901C54.2288 141.041 56.2376 139.37 56.9233 137.362C57.609 135.353 57.667 135.073 57.0971 134.6C56.5177 134.136 52.9636 131.094 52.1041 129.095C51.2349 127.086 51.6985 126.159 52.1717 125.705C52.6159 125.241 59.5792 120.084 61.5494 119.311C63.5292 118.519 64.5626 117.834 66.1175 120.345C67.6627 122.836 69.5556 129.809 70.2413 131.007C70.927 132.224 71.4486 132.823 72.5592 132.996C73.6892 133.17 79.7156 132.996 82.13 134.204C84.5445 135.42 87.6349 139.544 85.1336 143.069C82.6322 146.594 80.6524 148.845 79.7156 149.444C78.7595 150.042 78.6822 150.641 78.943 151.336C79.1941 152.022 81.5506 155.673 85.3364 161.236C89.1319 166.808 93.3717 174.496 94.4533 176.34C95.5543 178.175 95.7185 178.581 96.5877 178.813C97.4472 179.035 102.45 178.011 103.763 177.432C105.096 176.852 107.791 175.606 109.394 175.075C111.007 174.563 112.253 174.505 113.296 172.835C114.339 171.173 116.28 166.296 118.569 165.659C120.877 165.041 124.537 165.958 127.637 166.75C130.737 167.552 135.441 169.165 136.484 169.619C137.508 170.072 137.923 169.841 138.145 169.512C138.367 169.165 141.989 162.742 142.037 160.724C142.105 158.705 140.26 157.16 139.748 156.822C139.236 156.474 128.738 149.472 124.653 146.604C120.578 143.745 117.255 141.157 116.57 138.859C115.884 136.56 116.396 134.899 118.405 134.551C120.413 134.213 133.896 133.228 135.054 131.915C136.204 130.592 134.765 123.358 131.732 120.441C131.732 120.441 129.598 120.152 128.41 119.862C127.203 119.572 123.649 118.259 120.539 118.259C117.429 118.259 114.397 117.795 112.62 117.389C110.833 116.993 97.6887 114.463 91.8361 111.595C85.9738 108.726 83.2793 100.112 82.5839 98.3926C81.9079 96.6736 81.0966 96.0362 79.9474 95.9203C78.7981 95.814 78.4021 95.8816 77.8903 96.2197C77.3688 96.5577 73.9885 98.8562 70.4248 98.8562" fill="#E60012"/>
<path d="M81.7051 108.282C80.7683 108.948 80.2082 110.513 80.7683 111.565C81.3285 112.628 82.5454 114.134 83.3856 114.289C84.2162 114.463 86.225 114.134 86.7175 112.85C87.2294 111.565 86.9493 109.788 85.0564 108.562C83.1635 107.335 81.7148 108.291 81.7148 108.291" fill="#1A0B08"/>
<path d="M83.8903 109.556C83.5812 109.663 83.6005 110.677 84.4408 111.623C85.2713 112.569 85.8315 111.179 85.8315 110.889C85.8315 110.619 84.885 109.17 83.8903 109.556Z" fill="#EB9219"/>
<path d="M99.4976 130.553C98.0296 130.64 97.286 132.62 97.3342 133.73C97.3825 134.831 99.3431 137.188 100.367 137.332C101.371 137.487 103.341 137.246 103.583 135.517C103.824 133.778 102.376 130.418 99.4976 130.562" fill="#1A0B08"/>
<path d="M100.594 132.378C100.265 132.484 100.449 133.006 100.594 133.296C100.739 133.585 101.366 135.266 102.081 135.208C102.796 135.169 102.844 134.252 102.554 133.672C102.265 133.093 101.405 132.137 100.584 132.378" fill="#EB9219"/>
<path d="M113.96 150.457C112.473 150.505 111.179 151.365 111.131 151.896C111.073 152.427 110.204 153.383 111.179 154.88C112.145 156.368 113.816 158 115.544 157.082C117.273 156.165 118.374 154.774 117.611 152.949C116.838 151.133 115.264 150.409 113.96 150.467" fill="#1A0B08"/>
<path d="M115.981 152.998C115.16 152.032 114.358 151.897 113.972 152.322C113.586 152.746 114.301 153.278 114.494 153.422C114.687 153.567 115.025 154.717 115.363 154.871C115.701 155.016 115.884 155.248 116.425 154.485C116.754 154.012 115.991 152.998 115.991 152.998" fill="#EB9219"/>
<path d="M63.3566 135.323C61.4637 135.459 60.4303 135.362 60.0344 135.478C59.6288 135.584 57.4461 138.346 56.9922 142.943C56.9922 142.943 62.4392 143.33 66.225 142.77C66.225 142.77 67.0362 140.983 67.326 139.554C67.6157 138.124 68.2338 135.082 67.268 134.551C67.268 134.551 65.4234 135.188 63.3663 135.323" fill="white"/>
<path d="M71.9314 134.966H69.8067C69.5363 134.966 69.4687 135.226 69.2562 136.192C69.0534 137.148 68.6478 141.176 68.9182 141.987C69.1982 142.808 70.56 143.281 71.4388 143.069C72.3274 142.866 74.2396 142.393 75.1281 143.407C76.0166 144.43 74.3748 146.343 73.834 147.086C73.2835 147.83 72.0666 149.404 71.9314 150.573C71.7865 151.722 72.0666 152.34 73.9016 151.577C75.7462 150.833 81.3284 145.589 82.8929 142.518C84.4672 139.447 83.3758 137.264 81.396 136.318C79.4161 135.371 73.1483 134.956 71.9217 134.956" fill="#D6B569"/>
<path d="M161.113 113.266C158.94 113.063 155.376 112.29 154.111 111.711C152.846 111.141 151.243 111.305 150.779 111.537C150.335 111.769 150.035 112.396 150.663 112.686C151.301 112.966 152.218 114.347 151.127 115.439C150.035 116.53 147.795 118.423 144.984 118.375C144.984 118.375 145.854 123.136 145.854 123.879C145.854 124.623 146.877 124.459 147.177 124.382C147.466 124.333 149.234 123.879 150.209 123.174C151.194 122.489 153.599 122.025 154.816 122.083C156.004 122.131 157.974 121.397 158.998 120.47C160.031 119.553 162.156 118.288 163.411 118.065C164.677 117.834 166.347 117.032 166.734 116.636C167.139 116.24 168.057 115.603 168.916 115.255C169.776 114.917 171.843 113.304 171.91 112.213C171.968 111.122 170.181 111.18 168.81 111.353C167.429 111.527 165.304 112.28 164.387 112.676C163.469 113.082 162.378 113.362 161.113 113.256" fill="#D6B569"/>
<path d="M139.294 119.929C138.193 120.093 136.542 120.258 135.972 120.258C135.402 120.258 135.228 120.258 135.112 120.837C134.996 121.407 136.387 125.83 136.889 127.327C137.401 128.814 137.981 130.775 138.493 130.543C139.024 130.321 141.66 128.998 142.288 128.698C142.916 128.418 143.795 127.211 144.017 125.83C144.22 124.575 143.553 118.596 142.867 118.886C142.047 119.234 141.544 119.572 139.294 119.929Z" fill="white"/>
<path d="M94.7822 182C94.0482 180.957 93.6136 180.368 93.6136 180.368C93.6136 180.368 91.8849 179.209 89.8181 175.075C89.8181 175.075 85.7426 177.354 81.696 180.02C77.6494 182.685 69.1312 187.679 67.2287 188.538C65.3357 189.398 64.5535 190.334 64.737 191.213C64.9011 192.073 65.9345 194.217 69.0443 198.09C72.1445 201.972 78.2578 210.49 80.8364 213.503C83.4151 216.517 84.4581 217.637 85.0569 217.637C85.6556 217.637 89.0165 215.821 91.1702 213.416C93.3239 211.002 96.9456 207.207 99.0896 205.584C101.253 203.942 103.832 202.059 103.918 200.765C104.005 199.48 104.092 198.698 103.745 198.09C103.397 197.491 95.9218 183.584 94.7919 182" fill="white"/>
<path d="M64.9892 197.915C64.9892 197.915 62.7486 193.868 62.314 193.086C61.8987 192.314 61.2033 192.062 60.7784 192.314C60.3438 192.574 56.3841 194.825 54.5781 196.621C54.5781 196.621 56.471 200.503 57.1567 200.754C57.8424 201.006 59.0497 201.788 61.1164 200.668C63.1832 199.547 64.3807 198.176 64.9892 197.905" fill="white"/>
<path d="M53.1172 214.701C50.8863 211.417 48.9741 208.587 47.8538 207.38C46.7335 206.173 46.2119 205.487 46.2119 205.149C46.2119 204.811 45.1786 204.116 44.8405 205.478C44.4929 206.868 48.7133 213.494 50.867 217.028C53.0207 220.553 59.3851 228.647 61.7126 226.927C61.7126 226.927 60.2447 226.667 58.9602 224.088C57.6757 221.509 54.9136 217.376 53.1076 214.701" fill="white"/>
<path d="M97.9393 181.768C97.9393 181.768 102.604 190.412 103.444 192.218C104.284 194.034 110.069 203.102 111.808 205.324C113.556 207.555 119.341 216.208 119.833 216.971C120.326 217.734 121.157 218.217 122.2 217.531C123.243 216.836 128.468 215.223 132.446 213.562C136.416 211.881 141.496 209.168 143.746 207.564C145.977 205.961 147.793 204.715 146.75 203.518C145.687 202.33 143.553 200.804 141.65 199.268C139.767 197.733 138.714 196.197 136.706 194.526C134.677 192.856 129.24 187.273 127.502 185.255C125.754 183.236 118.868 174.448 119.486 173.617C120.104 172.767 122.48 176.331 124.363 178.359C126.256 180.378 130.225 184.772 131.481 185.612C132.727 186.452 135.518 185.747 136.841 185.12C138.174 184.482 143.398 183.024 145.484 182.599C147.59 182.193 153.858 178.842 154.138 177.442C154.418 176.051 154.205 173.675 153.442 172.912C152.679 172.149 150.584 169.493 150.178 168.798C149.753 168.093 145.214 163.361 144.866 163.003C144.519 162.656 144.239 162.733 144.026 163.293C143.814 163.863 140.897 171.377 138.811 172.362C136.715 173.328 132.456 171.454 128.834 170.121C125.203 168.798 120.596 167.33 119.766 167.745C118.926 168.17 118.578 169.774 117.883 171.174C117.187 172.555 116.183 175.684 113.479 177.152C111.325 178.34 101.271 181.971 97.9297 181.768" fill="white"/>
<path d="M131.467 225.459C132.713 224.861 134.654 224.378 134.654 223.518C134.654 222.659 133.959 220.988 133.041 220.186C132.114 219.385 131.313 218.805 131.081 218.573C130.849 218.342 130.511 218.062 129.758 218.177C129.014 218.293 124.301 219.385 123.895 220.418C123.509 221.442 124.716 222.485 125.161 222.997C125.624 223.518 127.005 225.353 127.295 225.865C127.594 226.396 128.676 227.072 129.294 226.734C129.941 226.387 130.617 225.865 131.457 225.459" fill="white"/>
<path d="M159.739 223.924C159.266 224.803 157.325 228.454 150.555 232.481C143.794 236.489 142.471 237.706 142.046 239.434C141.65 241.153 142.626 242.361 145.784 239.492C148.942 236.614 151.974 235.755 155.026 233.06C158.069 230.356 158.522 229.622 159.904 227.662C160.995 226.116 160.879 222.726 160.367 222.504C159.855 222.273 160.184 223.074 159.73 223.934" fill="white"/>
<path d="M149.669 85.5287C147.959 85.7219 146.569 85.6736 146.231 85.3452C145.902 85.0072 146.144 91.9801 146.25 92.5016C146.347 93.0328 146.665 93.1777 147.477 93.3515C148.442 93.5446 150.47 93.5833 151.243 93.0231C151.996 92.4533 154.816 90.9274 157.762 92.6368C157.762 92.6368 157.53 86.1951 157.53 85.6736C157.53 85.1521 157.685 84.476 156.864 84.3891C156.062 84.2829 154.343 84.1477 152.817 84.6209C151.291 85.1038 150.48 85.4321 149.669 85.5287Z" fill="#E60012"/>
<path d="M148.94 113.198C148.94 113.198 147.819 110.619 150.572 109.75C153.334 108.89 155.478 109.412 157.188 110.098C158.926 110.783 161.331 110.957 162.287 111.044C163.233 111.131 167.966 108.977 170.293 109.238C172.611 109.499 173.384 110.358 173.741 111.044C174.079 111.739 176.059 111.218 176.059 111.218C176.059 111.218 180.878 107.867 181.911 106.833C182.935 105.8 180.975 106.138 180.366 106.138C179.758 106.138 172.186 107.432 168.912 107.432C165.638 107.432 159.022 107.867 157.902 107.606C156.782 107.355 151.866 106.833 147.733 107.181C143.599 107.529 133.874 107.867 134.299 108.552C134.733 109.238 146.265 114.057 148.94 113.198Z" fill="white"/>
<path d="M157.904 105.279C157.904 105.279 157.778 104.187 158.01 103.502C158.242 102.806 158.358 100.286 157.266 99.7738C156.175 99.2522 155.026 99.484 154.514 99.7062C153.992 99.9379 152.553 100.334 151.984 99.88C151.414 99.4261 149.395 99.1943 148.883 99.4261C148.372 99.6482 147.222 100.508 146.537 100.682C145.851 100.865 144.354 102.005 144.016 102.517C143.668 103.038 143.205 104.187 141.312 104.352C139.409 104.525 138.608 104.641 138.096 105.897C138.096 105.897 148.14 104.178 157.904 105.269" fill="white"/>
<path d="M166.955 99.1363C166.038 99.0783 164.493 98.1029 163.749 97.929C163.005 97.7649 161.054 97.9966 160.475 98.8562C159.905 99.7157 159.963 100.411 160.079 101.155C160.195 101.898 160.021 102.883 159.905 103.337C159.789 103.801 160.021 104.603 160.369 104.883C160.716 105.172 160.649 105.462 160.649 105.462C160.649 105.462 173.098 105.52 177.057 104.371C177.057 104.371 176.256 103.859 175.802 103.048C175.348 102.236 174.083 101.329 173.098 100.981C172.132 100.633 172.238 100.121 170.577 99.6578C168.906 99.2039 166.955 99.1459 166.955 99.1459" fill="#EB9219"/>
<path d="M126.429 25.428C123.898 26.2585 114.047 29.011 112.261 31.7055C110.474 34.3904 110.628 38.3018 114.627 38.2148C118.615 38.1279 121.464 33.9075 121.947 33.0866C122.44 32.2657 120.721 31.0391 119.581 32.594C118.451 34.1393 114.54 36.8338 113.642 35.1244C112.744 33.4053 115.515 31.6186 117.553 30.8073C119.572 29.9864 126.902 27.5527 126.902 27.5527C126.902 27.5527 117.621 43.9902 115.911 46.2791C114.212 48.5486 110.609 53.4354 108.427 51.3204C106.234 49.1957 111.44 44.6566 113.381 43.826C115.341 43.0147 114.772 40.4071 112.57 41.2184C110.368 42.0393 106.225 45.207 105.162 49.1957C104.1 53.1843 108.909 55.0579 111.836 53.4354C114.772 51.8129 118.026 48.2203 121.86 41.4598C125.685 34.6994 130.398 27.0505 130.398 25.5922C130.398 24.1338 129.674 24.3656 126.409 25.4183" fill="#1A0B08"/>
<path d="M136.66 23.7182C135.694 23.612 134.854 24.3459 134.854 25.5145C134.854 26.6831 135.394 27.2143 136.66 27.2143C137.925 27.2143 137.925 25.4276 137.925 25.0896C137.925 24.7516 137.693 23.8341 136.66 23.7182Z" fill="#1A0B08"/>
<path d="M141.447 49.7942C142.693 49.6204 142.616 51.2139 141.882 51.6389C141.148 52.0735 138.009 53.1551 138.009 53.1551C138.009 53.1551 132.726 62.8322 134.223 62.668C135.73 62.4845 138.009 59.5679 139.603 57.1535C141.187 54.739 141.486 54.9998 141.486 54.9998C143.147 50.9339 145.9 48.5677 148.208 48.3456C150.497 48.1138 151.018 50.9339 151.018 50.9339C154.572 50.1806 157.045 46.7424 157.672 45.9891C158.31 45.2454 158.957 45.6124 159.063 45.9311C159.198 46.4044 158.831 47.6019 155.789 49.9488C152.747 52.2956 150.96 52.2956 150.96 52.2956C150.043 57.5204 145.224 61.3063 143.331 60.8524C141.428 60.3888 141.09 57.7522 141.09 57.7522C138.434 62.5135 135.45 63.9525 133.625 63.8366C131.79 63.7207 131.954 61.934 131.905 61.3063C131.848 60.6785 130.466 63.1413 130.186 63.5469C129.887 63.9525 129.114 65.7778 128.429 65.4398C127.762 65.1114 128.12 64.3581 128.805 63.1509C129.501 61.9437 134.088 54.2658 134.088 54.2658C132.369 55.0094 131.345 54.7776 131.162 53.9181C130.988 53.0586 136.107 51.5616 136.107 51.5616C136.618 50.5862 139.139 46.5686 139.603 46.0567C140.057 45.5448 140.81 45.5448 141.38 46.1726C141.959 46.8003 139.777 50.1226 139.777 50.1226C139.777 50.1226 140.221 49.9681 141.467 49.7942M147.802 50.3061C147.628 50.2771 144.866 52.8847 144.045 56.3325C143.234 59.7804 145.813 59.6934 147.464 56.941C149.096 54.1789 149.483 52.2956 149.483 52.2956C149.483 52.2956 148.623 52.1604 148.324 51.6389C148.015 51.127 148.044 50.3544 147.802 50.3061Z" fill="#1A0B08"/>
<path d="M131.082 33.7629C131.739 33.2124 132.975 33.9947 132.512 35.3661C132.058 36.7568 128.33 42.3293 127.934 43.1792C127.528 44.0388 128.562 44.2126 129.025 43.9905C129.489 43.7587 133.043 38.2441 134.762 35.7717C136.481 33.2993 139.398 29.8032 140.904 29.8612C142.392 29.9191 142.111 32.4978 142.111 32.4978C143.831 30.1992 144.98 30.2572 145.955 30.4889C146.921 30.7111 146.766 33.0193 146.766 33.0193C146.766 33.0193 149.104 29.6873 151.006 29.6873C152.909 29.6873 153.015 31.7058 152.667 32.2563C152.32 32.8261 150.147 35.9359 151.18 36.6313C152.204 37.3266 155.024 34.6225 155.024 34.6225C153.933 32.5654 154.792 28.8278 157.38 25.8436C159.959 22.8593 163.571 21.9418 163.745 24.6363C163.919 27.3405 158.298 33.9368 158.298 33.9368C161.504 35.4337 165.812 28.7699 167.028 27.1667C168.226 25.5538 168.467 23.6126 169.549 23.8927C170.65 24.1824 170.071 25.9595 167.946 28.7699C165.821 31.5899 164.218 34.043 161.292 35.5979C158.365 37.1528 156.125 35.8297 156.125 35.8297C156.125 35.8297 150.668 40.3592 149.075 38.2345C147.462 36.1194 149.529 33.8788 150.166 32.3819C150.784 30.8946 149.876 31.87 148.321 33.2993C146.776 34.7383 144.41 38.5338 144.024 39.4513C143.608 40.3592 142.633 41.7885 141.551 41.3925C140.46 40.9966 141.204 38.5242 142.585 36.3995C143.956 34.2748 144.874 32.3239 144.526 32.2563C144.178 32.208 142.353 34.4486 140.962 36.2836C139.591 38.1186 137.756 41.6726 137.302 42.4839C136.838 43.2855 136.162 43.807 135.583 43.6331C135.003 43.4496 134.743 42.7736 135.003 42.0203C135.196 41.4698 137.524 37.5488 138.567 35.7041C139.591 33.8692 139.938 32.942 139.823 32.7102C139.716 32.4881 138.857 33.4635 137.524 35.1826C136.211 36.9017 131.855 43.2082 130.696 44.6472C129.537 46.0765 128.108 46.9457 126.678 46.2697C125.239 45.5743 125.597 43.2758 125.597 43.2758C124.776 44.0194 121.685 47.5445 121.058 48.5489C120.526 49.3988 119.503 49.0801 119.696 48.3944C119.899 47.699 120.662 46.8298 121.569 45.5647C122.487 44.2995 129.093 35.9842 129.836 34.9508C129.836 34.9508 130.348 34.3714 131.092 33.7436M158.723 27.6882C157.844 28.9244 156.994 30.6918 156.907 32.7199C156.907 32.7199 158.887 30.5276 160.258 28.3739C161.639 26.2299 161.9 25.322 161.475 25.3703C161.041 25.3993 159.631 26.3941 158.723 27.6978" fill="#1A0B08"/>
<path d="M122.734 73.2527C122.994 72.876 124.153 71.9682 124.8 71.3211C125.438 70.6837 126.394 69.2158 125.786 68.8198C125.187 68.4431 121.555 69.4282 119.334 72.0068C117.084 74.5951 117.683 76.7488 117.683 76.7488C119.286 75.5416 120.01 76.0148 120.619 76.3625C121.217 76.7005 121.005 77.1351 120.619 77.4345C120.223 77.7435 118.89 78.7286 116.91 80.3608C114.93 82.0026 111.183 86.9957 112.081 88.9659C112.989 90.9553 114.969 90.2986 117.808 88.6665C120.648 87.0343 127.147 79.4143 128.741 77.3862C130.334 75.3677 132.227 73.4748 133.937 72.6539C135.675 71.833 137.211 72.7698 137.346 73.0789C137.471 73.3782 137.645 73.5038 137.848 73.1175C138.07 72.7408 138.543 71.9972 139.036 71.3405C139.519 70.6934 140.388 71.07 140.601 71.6688C140.813 72.2579 139.133 74.8076 137.896 77.0192C136.651 79.2405 136.911 80.158 137.404 80.2739C137.896 80.3705 138.988 78.748 142.107 74.9621C145.256 71.1763 145.42 70.027 145.42 70.027C145.42 70.027 143.73 70.6837 143.565 69.6986C143.401 68.7329 146.762 67.912 146.762 67.912C146.762 67.912 148.066 65.5844 149.476 63.6915C150.876 61.7986 151.91 62.2332 152.132 63.1024C152.344 63.9619 150.722 66.6178 150.722 66.6178C150.722 66.6178 152.731 66.077 152.731 67.1587C152.731 68.2403 149.206 69.0516 149.206 69.0516C148.288 70.0849 145.97 74.682 145.69 76.0824C145.429 77.4924 145.69 77.7146 146.241 77.3379C146.782 76.9613 149.051 74.6241 150.616 72.567C152.19 70.5195 153.484 67.9699 154.517 68.4045C155.541 68.8391 154.025 70.9445 152.779 72.5187C151.533 74.0833 148.935 78.2554 145.903 78.9025C142.88 79.5495 142.986 76.3045 142.986 76.3045C140.765 79.4433 137.848 82.0412 136.989 82.0992C136.119 82.1571 135.086 80.9016 135.086 80.9016C135.086 80.9016 133.946 83.1712 131.03 83.8762C128.103 84.5716 127.398 81.6549 127.398 81.6549C127.398 81.6549 121.024 90.1441 115.664 91.8342C110.304 93.5147 108.035 90.26 109.445 86.1554C110.855 82.0509 115.828 77.6566 115.828 77.6566C115.558 77.6566 114.65 76.7971 115.278 73.7163C115.925 70.6258 122.695 65.5941 125.728 66.782C128.741 67.9796 127.833 70.6258 126.906 72.3062C125.988 73.9867 122.869 75.9569 122.26 74.5758C122.116 74.2571 122.444 73.6293 122.705 73.2334M136.399 73.9287C136.148 73.4265 134.033 74.4889 132.43 76.6329C130.837 78.7866 129.359 80.6892 130.247 81.5487C131.58 82.8332 133.425 80.5539 134.111 79.5689C134.796 78.5741 137.037 75.2615 136.39 73.9191" fill="#1A0B08"/>
<path d="M163.169 58.6123C161.421 61.7124 159.905 65.3437 159.422 66.6668C158.958 67.99 158.485 68.6563 159.383 69.2551C160.282 69.8829 161.035 67.99 161.46 67.1787C161.885 66.3675 166.337 59.1821 166.849 58.1487C167.37 57.1057 167.274 55.9274 166.52 55.5508C165.767 55.1741 165.255 55.2128 164.579 56.1206C163.913 57.0188 163.594 57.8686 163.16 58.6219" fill="#1A0B08"/>
<path d="M157.201 71.2061C156.409 71.2061 155.414 72.1042 155.414 72.9927C155.414 73.8813 156.409 74.5573 157.201 74.5573C157.993 74.5573 158.862 73.8523 158.862 72.8672C158.862 71.8821 157.828 71.2061 157.201 71.2061Z" fill="#1A0B08"/>
<path d="M39.1857 30.5559C38.5579 31.4155 38.1523 32.3909 37.6211 33.2987C38.809 31.261 40.0935 29.059 42.2085 27.8711C41.0303 28.5375 39.9679 29.4743 39.1857 30.5559Z" fill="#1A0B08"/>
<path d="M37.6149 33.2989C37.4701 33.55 37.3445 33.8397 37.2383 34.1681C38.7642 32.0337 40.435 29.88 42.2024 27.8809C40.0777 29.0688 38.7932 31.2611 37.6149 33.2989Z" fill="#1A0B08"/>
<path d="M38.4499 2.99306C38.363 2.99306 38.2954 2.99306 38.2181 2.99306C34.3454 3.14758 28.3189 6.86581 25.3926 10.4778C23.6542 12.6411 23.915 15.5481 24.5331 17.866C27.7781 11.1828 36.3638 4.52864 38.4499 2.9834" fill="#EB9219"/>
<path d="M46.6726 4.61506C44.5382 3.57202 41.8244 2.89598 38.4442 2.99255C36.3677 4.53779 27.7723 11.192 24.5273 17.8751C24.9426 19.4397 25.5124 20.7435 25.7249 21.3326C25.9374 21.9314 26.3237 22.8006 26.652 24.0175C29.8777 19.5459 39.014 7.7828 46.6726 4.61506Z" fill="#E60012"/>
<path d="M32.1963 53.2817C33.1621 51.891 36.1367 47.5837 37.1604 45.768C36.6775 41.5283 36.4168 36.7187 37.228 34.1787C32.6309 40.6204 29.3376 46.9076 28.4395 48.6653C29.2604 50.4327 30.4579 52.2001 32.1963 53.2817Z" fill="#E60012"/>
<path d="M37.733 54.1215C37.9262 53.7835 38.1097 53.4165 38.2352 53.1558C37.9938 51.8133 37.5109 48.945 37.1535 45.7676C36.1202 47.5832 33.1552 51.8906 32.1895 53.2813C33.6285 54.1795 35.4441 54.5851 37.7233 54.1215" fill="#EB9219"/>
<path d="M38.389 53.9568C38.389 53.9568 38.3214 53.667 38.2345 53.1455C38.0993 53.4063 37.9255 53.7636 37.7227 54.1113C37.9448 54.063 38.1573 54.0244 38.389 53.9568Z" fill="#1A0B08"/>
<path d="M50.3177 7.23248C49.3906 6.27637 48.1834 5.35888 46.6768 4.61523C39.0182 7.78298 29.8819 19.5461 26.6562 24.0177C27.1488 25.8237 27.5448 28.383 27.1971 32.0143C27.1778 32.1012 27.1778 32.1881 27.1585 32.275C33.7644 17.7208 46.7927 9.35719 50.3177 7.23248Z" fill="#EB9219"/>
<path d="M42.2051 27.8811C44.3781 26.6642 47.4203 26.4807 52.1622 28.5668C52.1622 28.5668 52.365 23.8635 52.4423 19.4209C48.8496 21.1883 45.3535 24.3077 42.2051 27.8811Z" fill="#E60012"/>
<path d="M26.8125 41.9323C26.9381 43.7286 27.2181 45.3608 27.7107 46.8191C27.9135 47.4082 28.1549 48.0263 28.4447 48.6541C29.3428 46.8964 32.6361 40.6092 37.2332 34.1675C37.3394 33.8391 37.465 33.5494 37.6099 33.2983C38.141 32.4001 38.5467 31.415 39.1744 30.5555C39.9664 29.4738 41.019 28.537 42.207 27.8706C45.3554 24.2876 48.8515 21.1778 52.4442 19.4104C52.4442 19.1593 52.4538 18.9082 52.4538 18.6571C52.4828 16.7545 52.7339 15.132 52.8401 13.751C48.4942 16.1558 35.4272 24.3359 26.8125 41.9323Z" fill="#EB9219"/>
<path d="M52.8504 11.6074C52.7152 10.5547 51.9136 8.84527 50.3201 7.23242C46.795 9.35713 33.7667 17.7207 27.1704 32.275C26.8228 35.9256 26.6199 39.132 26.8131 41.9424C35.4278 24.346 48.4947 16.1658 52.8407 13.7611C52.9083 12.9691 52.9373 12.2545 52.8504 11.6074Z" fill="#E60012"/>
<path d="M55.07 33.7909C53.7276 32.5161 52.2596 31.3668 50.782 30.6232C50.444 30.459 50.1156 30.3238 49.8065 30.1982C47.4211 31.8883 42.4956 36.0315 39.6562 39.6725C39.8011 41.5944 40.2067 44.2986 40.6317 46.8579C42.9495 43.777 48.5704 37.2098 55.07 33.7909Z" fill="#E60012"/>
<path d="M65.1584 45.1877C64.9846 44.7241 63.5263 43.5169 62.1645 42.1455C61.1215 42.7733 59.3638 44.3282 58.5332 45.1491C61.3533 44.9366 65.1584 45.1877 65.1584 45.1877Z" fill="#EB9219"/>
<path d="M49.8038 30.1994C46.1918 28.7508 43.6132 29.7552 42.3481 30.5471C40.4938 31.706 39.5859 34.3426 39.5859 38.3795C39.5859 38.7465 39.6053 39.1908 39.6439 39.6737C42.4833 36.0327 47.4184 31.8895 49.7942 30.1994" fill="#EB9219"/>
<path d="M62.1642 42.1452C61.5075 41.4788 60.8797 40.7834 60.4258 40.1074C60.0202 39.4893 59.3635 38.5911 58.5426 37.5674C55.5873 39.0547 48.0446 43.6325 41.5449 51.9767C41.825 53.3964 41.9988 54.3043 41.9988 54.3043C41.9988 54.3043 45.6108 53.6958 47.7742 50.9434C49.9278 48.1813 53.9744 46.298 56.215 45.5254C56.7752 45.3226 57.6058 45.2067 58.5426 45.1391C59.3731 44.3085 61.1308 42.7633 62.1739 42.1355" fill="#E60012"/>
<path d="M58.5479 37.5682C57.5918 36.3706 56.3846 35.0185 55.0711 33.792C48.5715 37.2108 42.9507 43.7781 40.6328 46.8589C40.9515 48.7712 41.2799 50.6158 41.5503 51.9775C48.05 43.6332 55.5927 39.0555 58.5479 37.5682Z" fill="#EB9219"/>
<path d="M30.4992 266.466C31.0303 265.993 35.1542 256.045 35.1542 256.045C35.1542 256.045 18.8809 255.978 17.7123 256.074C16.3699 256.161 10.0151 256.519 5.62081 259.744C1.24585 262.97 0 268.108 0 272.348C0 276.587 3.4285 281.329 6.857 283.387C10.2758 285.434 19.3252 289.886 32.9619 285.299L36.5256 276.742C36.5256 276.742 33.242 279.137 29.1954 279.137C25.1488 279.137 20.2233 276.877 20.2233 270.503C20.2233 264.129 23.4394 262.159 25.6317 262.159C27.824 262.159 29.1761 263.173 29.7555 264.351C30.335 265.52 30.2577 266.128 30.2191 266.254C30.1805 266.379 30.2094 266.717 30.4992 266.476" fill="#1A0B08"/>
<path d="M56.0159 256.017C56.5278 255.911 36.1499 256.017 35.8795 256.017C35.6091 256.017 35.6767 256.162 35.8795 256.191C36.0823 256.229 38.8638 256.674 39.3756 258.934C39.8875 261.184 39.6557 275.96 39.7233 278.384C39.7813 280.818 40.6118 283.522 45.431 285.367C50.2696 287.211 56.2284 287.211 58.6911 287.211C61.1539 287.211 65.3357 286.555 67.9336 285.917C70.5412 285.27 71.9802 283.831 73.4675 281.513C74.9548 279.205 74.3946 274.772 74.3946 272.57C74.3946 270.368 74.0276 261.165 74.7037 259.165C75.3701 257.157 76.7994 256.49 77.63 256.49C78.4606 256.49 80.5563 257.157 80.5563 259.107C80.5563 261.058 81.0102 267.027 80.8653 272.261C80.7205 277.515 80.9233 282.189 79.4263 283.773C77.939 285.367 76.0847 286.294 76.0847 286.294H99.1571C99.1571 286.294 96.5399 285.174 95.719 283.735C94.8884 282.296 94.1737 278.645 94.1737 273.555C94.1737 268.466 93.7584 262.352 95.3616 260.865C96.9552 259.378 100.953 259.532 100.847 263.946C100.751 268.36 96.5882 268.051 96.5882 268.051C96.5882 268.051 97.8244 278.181 104.459 283.937C111.084 289.694 119.419 287.945 123.002 284.913C123.002 284.913 122.432 285.946 121.834 286.41H142.839C142.839 286.41 138.059 284.865 137.711 281.011C137.354 277.158 137.605 264.67 137.605 263.241C137.605 261.812 138.165 259.977 140.869 259.977C143.573 259.977 144.375 263.241 143.921 265.095C143.679 266.138 143.409 267.964 140.299 269.364C140.299 269.364 140.135 270.871 141.043 274.569C141.97 278.249 144.539 282.779 149.445 286.004C154.332 289.22 162.126 288.979 165.612 287.723C169.099 286.458 173.618 283.474 175.907 280.123C175.907 280.123 176.255 285.396 172.769 286.458H195.503C195.503 286.458 192.325 285.434 191.804 282.18C191.292 278.925 191.186 272.174 191.601 271.634C192.016 271.083 195.059 267.288 197.087 265.163C199.115 263.038 202.495 259.436 204.069 258.277C205.643 257.108 206.706 256.046 208 255.911V255.698L189.235 255.882C189.235 255.882 190.886 257.282 190.577 259.136C190.268 260.981 186.869 264.854 186.869 264.854C186.869 264.854 183.991 260.981 183.923 259.31C183.856 257.63 185.159 256.741 185.874 256.452C186.598 256.191 186.801 255.843 186.801 255.843L159.364 255.988C159.364 255.988 162.299 257.05 164.82 259.339C167.312 261.638 174.236 269.847 175.453 271.73L175.84 277.254C175.84 277.254 170.286 281.233 165.071 281.021C159.875 280.818 157.683 274.357 156.891 269.992C156.891 269.992 161.247 268.379 161.623 263.444C162 258.528 157.992 256.287 154.313 256.085C150.604 255.882 128.41 255.988 126.006 255.988C123.601 255.988 119.39 255.882 120.356 256.22C121.331 256.558 123.031 257.794 123.234 259.407C123.437 261.01 123.823 275.13 123.823 279.302C123.823 279.302 114.851 282.045 112.591 270.03C112.591 270.03 116.464 269.683 118.212 266.698C119.95 263.724 119.342 260.199 117.42 258.026C115.498 255.882 113.344 256.085 112.359 256.085H59.4444C58.8746 256.085 57.9861 256.114 58.469 256.268C58.9616 256.432 60.1398 257.195 60.6034 259.33C61.0669 261.464 60.8641 272.493 60.8352 274.309C60.8158 276.134 60.6517 280.47 57.1362 280.47C53.6208 280.47 53.3794 275.487 53.3794 274.28C53.3794 273.073 53.0703 260.614 53.2828 259.03C53.4856 257.437 54.8667 256.297 56.0159 256.056" fill="#1A0B08"/>
<path d="M81.5689 291.238C80.3327 291.721 79.6663 293.624 79.5408 296.212C79.4152 298.8 79.9078 308.477 79.9078 309.81C79.9078 311.143 80.3134 314.214 83.259 314.214C86.2046 314.214 86.3109 311.143 86.3109 310.022C86.3109 308.902 86.4461 299.495 86.4461 296.473C86.4461 293.45 84.5725 291.103 84.2827 290.89C83.993 290.688 84.2151 290.707 84.8912 290.707C85.5672 290.707 125.077 290.852 126.255 290.852C127.434 290.852 131.055 290.601 135.16 292.407C139.264 294.222 142.799 301.021 140.365 306.835C137.932 312.649 133.228 314.359 127.926 313.403C122.614 312.447 119.563 308.622 119.563 308.622C119.389 315.286 120.451 317.034 121.137 318.164C121.832 319.294 124.324 320.772 124.324 320.772C124.324 320.772 101.58 320.82 101.985 320.772C102.401 320.714 103.82 319.825 105.028 318.608C106.235 317.391 106.418 314.552 106.418 313.576C106.418 312.601 106.515 298.906 106.515 295.42C106.515 291.933 103.589 291.161 103.173 291.161C102.758 291.161 100.865 291.219 100.45 294.551C100.035 297.883 101.01 308.506 99.88 313.731C98.7501 318.966 95.563 319.526 92.2794 320.868C88.9861 322.211 80.7673 322.462 74.6057 321.177C68.444 319.893 67.1016 317.015 66.4835 314.61C65.8654 312.195 66.0199 295.632 65.7688 293.633C65.5177 291.624 63.2578 290.61 63.2578 290.61H82.9886C82.9596 290.794 82.8051 290.755 81.5786 291.248M123.802 303.774C126.391 302.547 125.859 298.337 124.787 296.743C123.715 295.15 122.006 294.985 120.528 296.086C119.051 297.197 119.379 303.407 119.379 303.407C119.379 303.407 121.224 305 123.793 303.774" fill="#1A0B08"/>
<path d="M129.334 315.604C127.76 315.604 126.523 316.841 126.523 318.405C126.523 319.97 127.76 321.206 129.334 321.206C130.908 321.206 132.154 319.96 132.154 318.405C132.154 316.85 130.908 315.604 129.334 315.604ZM129.334 320.781C128.049 320.781 126.948 319.728 126.948 318.405C126.948 317.082 128.04 316.029 129.334 316.029C130.628 316.029 131.719 317.072 131.719 318.405C131.719 319.738 130.618 320.781 129.334 320.781ZM130.715 317.671C130.715 317.015 130.174 316.86 129.624 316.86H128.271V319.931H128.706V318.511H129.228L130.145 319.931H130.657L129.73 318.511C130.28 318.502 130.705 318.289 130.705 317.681M129.228 318.087H128.706V317.304H129.527C129.865 317.304 130.28 317.362 130.28 317.671C130.28 318.173 129.614 318.087 129.228 318.087Z" fill="#231815"/>
</svg>
