<svg xmlns="http://www.w3.org/2000/svg" version="1.1" xmlns:xlink="http://www.w3.org/1999/xlink" xmlns:svgjs="http://svgjs.com/svgjs" width="192" height="192"><svg width="192" height="192" viewBox="0 0 192 192" fill="none" xmlns="http://www.w3.org/2000/svg">
<!-- <style>
  rect {
  }
  .bg {
    fill: transparent; 
  }
  path {
    fill:#000;
  }
</style> -->
<g clip-path="url(#clip0_2137_1726)">
<rect width="192" height="192" class="bg" fill="transparent"></rect>
<rect width="515" height="515" fill="transparent"></rect>
<path fill="#000" d="M127.536 60.5495C116.599 51.1042 100.098 50.4587 89.8982 54.3315C81.0051 57.7309 77.5279 61.2595 73.7556 64.3792C73.3974 64.6589 72.6809 65.2614 71.9855 65.2614C71.29 65.2614 70.5524 64.6805 70.2152 64.3792C66.443 61.2595 62.9658 57.7094 54.0727 54.3315C43.8729 50.4372 27.3511 51.0826 16.4348 60.5495C5.79251 69.7581 2.88431 82.6459 3.95908 94.501C4.82311 104.032 8.1317 111.885 12.3254 118.598C14.5171 122.127 19.8066 128.646 22.9677 132.132C35.5909 146.031 46.1489 155.54 57.297 165.05C60.732 167.976 69.288 175.077 69.7516 175.421C70.3206 175.83 71.0582 176.432 71.9644 176.432C72.8706 176.432 73.6081 175.83 74.1771 175.421C74.6618 175.077 83.1967 167.976 86.6318 165.05C97.8009 155.54 108.338 146.031 120.961 132.132C124.122 128.646 129.412 122.105 131.603 118.598C135.797 111.885 139.106 104.032 139.97 94.501C141.044 82.6459 138.157 69.7581 127.494 60.5495H127.536Z"></path>
<path fill="#000" d="M182.212 54.2544L159.161 75.6088C158.566 76.1598 158.521 77.0987 159.061 77.7059L162.134 81.1635C162.674 81.7707 163.593 81.8163 164.188 81.2653L187.239 59.9109C187.834 59.3599 187.878 58.4211 187.339 57.8139L184.266 54.3562C183.726 53.749 182.807 53.7035 182.212 54.2544Z"></path>
<path fill="#000" d="M166.077 35.3218L143.026 56.6762C142.431 57.2272 142.387 58.1661 142.926 58.7733L145.999 62.2309C146.539 62.8381 147.459 62.8837 148.053 62.3327L171.104 40.9783C171.699 40.4273 171.744 39.4884 171.204 38.8812L168.131 35.4236C167.591 34.8164 166.672 34.7708 166.077 35.3218Z"></path>
<path fill="#000" d="M149.927 16.3726L126.876 37.727C126.281 38.278 126.236 39.2168 126.776 39.824L129.849 43.2817C130.389 43.8889 131.308 43.9344 131.903 43.3835L154.954 22.0291C155.549 21.4781 155.593 20.5392 155.054 19.932L151.981 16.4744C151.441 15.8672 150.521 15.8216 149.927 16.3726Z"></path>
</g>
<defs>
<clipPath id="SvgjsClipPath1000">
<rect width="192" height="192" fill="transparent"></rect>
</clipPath>
</defs>
</svg><style>@media (prefers-color-scheme: light) { :root { filter: none; } }
</style></svg>