<svg width="328" height="288" viewBox="0 0 328 288" fill="none" xmlns="http://www.w3.org/2000/svg">
<path d="M224.477 81.8349C204.655 65.0345 174.709 63.8682 156.231 70.7991C140.104 76.8329 133.788 83.1359 126.957 88.6762C126.33 89.1921 125.008 90.2239 123.732 90.2239C122.455 90.2239 121.156 89.1921 120.506 88.6762C113.675 83.1359 107.359 76.8329 91.2325 70.7991C72.7543 63.8906 42.8084 65.0345 22.9864 81.8349C3.67948 98.2091 -1.584 121.133 0.387002 142.217C1.95485 159.152 7.97986 173.149 15.5727 185.082C19.5595 191.34 29.1234 202.959 34.8572 209.172C57.7702 233.913 76.8755 250.825 97.1231 267.738C103.372 272.942 118.849 285.57 119.722 286.198C120.753 286.916 122.097 287.993 123.732 287.993C125.367 287.993 126.733 286.938 127.741 286.198C128.614 285.592 144.091 272.964 150.34 267.738C170.588 250.825 189.693 233.913 212.606 209.172C218.34 202.981 227.926 191.34 231.891 185.082C239.484 173.149 245.486 159.175 247.076 142.217C249.047 121.155 243.784 98.2315 224.477 81.8349Z" fill="#E71F19"/>
<path d="M250.298 2.11L208.237 43.4747C207.204 44.4902 207.189 46.1518 208.203 47.1859L214.041 53.1394C215.055 54.1735 216.714 54.1886 217.747 53.1731L259.808 11.8084C260.841 10.7929 260.856 9.13127 259.842 8.09713L254.004 2.14366C252.99 1.10952 251.331 1.09447 250.298 2.11Z" fill="#E71F19"/>
<path d="M287.683 25.7599L243.978 65.7122C242.91 66.6893 242.834 68.3492 243.81 69.4197L249.427 75.5825C250.403 76.6529 252.06 76.7286 253.129 75.7515L296.834 35.7992C297.903 34.8221 297.979 33.1622 297.003 32.0917L291.386 25.9289C290.41 24.8585 288.752 24.7828 287.683 25.7599Z" fill="#E71F19"/>
<path d="M316.197 59.9634L273.357 96.8002C272.259 97.7444 272.133 99.4012 273.076 100.501L278.504 106.832C279.447 107.931 281.101 108.057 282.199 107.113L325.039 70.2763C326.137 69.3321 326.263 67.6752 325.32 66.5756L319.893 60.2449C318.95 59.1452 317.295 59.0192 316.197 59.9634Z" fill="#E71F19"/>
<path d="M156.614 197.374C156.614 193.112 156.614 188.873 156.614 184.611C156.614 179.99 156.882 176.155 154.755 172.588C151.977 167.923 146.4 167.945 141.921 167.923C138.158 168.035 136.635 169.044 136.635 172.925V210.967C136.635 213.03 136.59 214.802 138.382 215.677C139.278 216.126 140.286 216.305 141.294 216.305C143.377 216.305 145.437 216.328 147.52 216.171C150.857 215.901 152.761 214.802 154.128 213.187C157.286 209.419 156.547 202.825 156.636 197.351L156.614 197.374ZM149.514 202.174C149.514 204.843 149.424 207.333 147.655 208.163C147.162 208.387 146.266 208.522 145.728 208.499C144.855 208.455 143.981 208.455 143.78 207.019C143.601 205.853 143.623 179.811 143.623 177.77C143.623 176.895 143.78 175.841 145.079 175.706C145.885 175.639 146.938 175.527 148.125 176.514C149.155 177.388 149.558 178.331 149.558 181.314V202.174H149.514Z" fill="white"/>
<path d="M138.2 152.469C138.245 150.562 138.2 148.656 138.2 146.771C138.2 137.126 138.2 127.504 138.2 117.859C138.178 115.974 138.312 114.045 138.021 112.184C137.708 110.524 136.677 109.2 134.908 109.133C133.295 108.976 131.727 109.694 131.1 111.242C128.838 117.477 127.181 123.915 125.277 130.263C125.03 131.093 124.874 132.057 124.448 132.82C123.53 134.524 121.738 134.457 121.066 132.595C119.386 127.212 117.997 121.694 116.519 116.244C115.735 113.171 114.795 108.371 110.606 109.178C107.672 109.604 107.515 112.901 107.65 115.279C107.65 120.102 107.65 124.902 107.65 129.724C107.65 137.395 107.65 145.089 107.65 152.76C107.65 154.375 107.874 156.17 109.374 157.089C110.651 157.874 112.398 157.717 113.361 156.529C114.907 154.555 114.571 151.616 114.571 148.543C114.571 147.803 114.503 146.884 115.086 146.345C115.556 145.874 116.34 145.897 116.833 146.3C117.505 146.839 117.841 148.207 118.087 148.902C118.737 150.719 119.185 151.953 119.857 153.77C120.394 155.228 121.536 157.359 123.306 157.359C126.083 157.359 127.248 152.222 128.166 149.261C128.412 148.476 128.592 147.512 129.04 146.816C129.42 146.255 130.16 145.986 130.719 146.48C131.324 147.041 131.235 148.072 131.235 148.813C131.235 151.818 131.078 155.228 132.489 156.416C133.766 157.471 135.065 157.83 136.453 156.955C137.954 156.147 138.111 153.994 138.133 152.491L138.2 152.469Z" fill="white"/>
<path d="M120.936 178.128C120.555 175.751 120.286 173.867 119.726 171.534C119.502 170.614 118.965 169.156 117.755 168.618C115.874 167.766 114.328 167.81 112.245 168.147C110.364 168.439 109.759 169.695 109.222 172.364C108.998 173.485 108.796 174.966 108.617 176.087C106.78 187.706 104.764 199.303 103.353 210.989C103.241 212.111 102.995 213.367 103.398 214.443C104.137 216.35 106.937 216.641 108.46 215.52C109.244 214.914 109.625 213.905 109.894 212.985C110.364 210.989 110.677 208.724 111.551 207.355C112.111 206.48 113.074 206.301 114.866 206.301C116.344 206.301 117.15 206.57 117.755 207.423C118.36 208.275 118.472 209.531 118.696 210.518C118.965 211.684 119.077 212.357 119.368 213.524C119.726 214.892 120.577 215.587 121.451 215.901C123.332 216.574 126.356 215.677 126.02 212.671C125.751 210.383 125.505 208.881 125.258 206.57C123.937 197.082 122.436 187.617 120.958 178.151L120.936 178.128ZM117.307 196.387C117.128 197.463 116.546 198.585 114.687 198.585C113.007 198.585 112.447 197.733 112.178 196.858C112.044 196.432 112.044 195.848 112.021 195.422C112.021 193.718 112.984 187.998 114.619 187.998C115.672 187.998 116.232 189.478 116.658 190.959C117.128 192.619 117.598 194.66 117.307 196.387Z" fill="white"/>
<path d="M92.5568 176.469C92.5344 174.585 92.6688 172.656 92.3776 170.794C92.0641 169.134 91.0338 167.811 89.2643 167.744C87.6517 167.587 86.0838 168.304 85.4567 169.852C83.1945 176.088 81.5595 182.525 79.6333 188.873C79.3869 189.703 79.2301 190.667 78.8046 191.43C77.8863 193.135 76.0944 193.067 75.4225 191.206C73.7427 185.822 72.354 180.327 70.8981 174.854C70.1142 171.781 69.1735 166.981 64.9851 167.788C62.051 168.215 61.8942 171.512 62.0286 173.889C62.0286 178.712 62.0286 183.512 62.0286 188.335C62.0286 196.006 62.0286 203.677 62.0286 211.348C62.0286 212.963 62.2526 214.758 63.7532 215.677C65.0299 216.462 66.7769 216.305 67.74 215.117C69.2855 213.143 68.9495 210.204 68.9495 207.131C68.9495 206.391 68.8823 205.471 69.4647 204.933C69.935 204.462 70.719 204.485 71.2117 204.888C71.8836 205.427 72.2196 206.795 72.466 207.49C73.1155 209.307 73.5635 210.541 74.213 212.358C74.7282 213.816 75.8928 215.946 77.6623 215.946C80.4396 215.946 81.6043 210.81 82.5226 207.849C82.769 207.064 82.9481 206.1 83.3961 205.404C83.7769 204.843 84.516 204.574 85.0759 205.068C85.6807 205.628 85.5911 206.66 85.5911 207.4C85.5911 210.406 85.4343 213.816 86.8454 215.004C88.122 216.059 89.4211 216.417 90.8098 215.543C92.3104 214.735 92.4448 212.582 92.4896 211.079C92.5344 209.172 92.4896 207.266 92.4896 205.382C92.4896 195.737 92.4896 186.114 92.4896 176.469H92.5568Z" fill="white"/>
<path d="M64.6462 155.766C65.4973 154.285 65.3629 152.446 65.3629 150.831V135.017C65.3629 127.974 65.3629 120.931 65.3629 113.888C65.3629 111.376 64.579 109.11 61.8017 109.11C59.0244 109.11 58.1732 110.905 58.1956 113.574C58.1956 117.051 58.1956 122.905 58.1956 126.359C58.1956 127.615 57.8821 130.038 55.1272 130.038C52.753 130.038 52.1706 127.885 52.1706 126.628C52.1706 123.174 52.193 117.432 52.1706 113.978C52.1706 112.609 52.1706 110.905 51.006 109.963C49.8189 108.998 48.027 108.864 46.6832 109.604C45.3617 110.344 45.0705 112.206 44.9585 113.574C44.8018 125.821 44.9137 140.132 44.9137 152.379C44.9137 156.214 46.0784 157.515 48.5646 157.515C51.3419 157.515 52.1706 155.16 52.1706 151.93C52.1706 150.18 52.1706 143.406 52.1706 141.657C52.1706 138.965 52.753 137.395 55.2391 137.395C57.4341 137.395 58.1956 138.741 58.1956 141.859C58.1956 143.608 58.1956 149.171 58.1956 150.921C58.1956 152.446 58.1285 154.083 58.6884 155.519C59.2259 156.887 60.1891 157.515 61.9137 157.515C63.0784 157.515 64.1087 156.887 64.6462 155.788V155.766Z" fill="white"/>
<path d="M96.4764 111.623C95.4013 108.729 91.0785 108.236 89.9363 110.995C89.2643 112.52 89.2867 114.315 89.2867 115.93C89.2867 124.61 89.2867 135.197 89.2867 143.878C89.2867 146.794 88.682 149.598 86.4422 149.598C84.7848 149.598 83.6649 147.938 83.6649 144.999C83.6649 142.375 83.6649 140.042 83.6649 137.44C83.6649 130.509 83.6649 123.578 83.6649 116.647C83.6649 113.978 84.1576 109.784 80.6636 109.156C76.4528 108.819 75.9824 111.959 75.9824 115.346C75.9824 122.277 75.9824 129.635 75.9824 136.566C76.0496 141.635 75.8032 147.175 77.3935 151.773C79.7676 158.615 88.2116 159.579 92.7808 155.654C96.5884 152.379 96.9692 146.794 97.0588 142.263C97.0588 133.672 97.0588 125.059 97.0588 116.468C96.9916 114.853 97.0588 113.171 96.4988 111.645L96.4764 111.623Z" fill="white"/>
<path d="M202.574 123.802C202.574 120.797 202.574 117.813 202.574 114.808C202.574 113.484 202.708 111.959 202.126 110.725C201.051 108.393 196.37 108.325 196.168 112.654C196.011 115.503 196.079 116.355 195.922 119.899C195.877 120.999 196.034 122.569 194.668 122.793C193.368 122.95 192.831 122.098 192.316 120.528C191.868 119.114 191.532 117.679 191.151 116.243C190.367 113.372 190.143 110.658 187.545 109.469C186.425 108.998 185.462 109.043 184.365 109.514C182.058 110.568 182.438 114.696 182.349 116.849C182.394 128.759 182.259 140.692 182.394 152.603C182.394 155.384 183.424 157.74 186.627 157.381C189.628 156.775 189.247 153.052 189.404 150.674C189.561 148.139 189.426 146.076 190.614 145.448C191.218 145.134 191.935 145.403 192.361 145.762C193.145 146.345 193.48 147.736 193.906 148.902C194.824 151.392 195.16 152.805 196.415 155.407C197.333 157.291 198.744 157.672 200.043 157.403C202.798 156.865 202.596 153.119 202.596 150.786C202.596 141.792 202.596 132.797 202.596 123.78L202.574 123.802Z" fill="white"/>
<path d="M171.685 154.016C171.416 151.728 171.17 150.225 170.923 147.915C169.602 138.427 168.101 128.961 166.623 119.496C166.242 117.118 165.974 115.234 165.414 112.879C165.19 111.959 164.652 110.501 163.443 109.963C161.561 109.11 160.016 109.155 157.933 109.492C156.051 109.783 155.447 111.039 154.909 113.709C154.685 114.83 154.484 116.311 154.304 117.432C152.468 129.051 150.452 140.67 149.041 152.356C148.929 153.478 148.682 154.734 149.086 155.81C149.825 157.717 152.625 158.009 154.148 156.887C154.931 156.281 155.312 155.272 155.581 154.352C156.051 152.356 156.365 150.091 157.238 148.722C157.798 147.848 158.761 147.668 160.553 147.668C162.032 147.668 162.838 147.937 163.443 148.79C164.047 149.642 164.159 150.898 164.383 151.885C164.652 153.051 164.764 153.724 165.078 154.891C165.436 156.259 166.287 156.954 167.161 157.268C169.042 157.941 172.066 157.044 171.73 154.038L171.685 154.016ZM162.995 137.754C162.815 138.831 162.233 139.952 160.374 139.952C158.694 139.952 158.134 139.1 157.866 138.225C157.731 137.799 157.731 137.216 157.709 136.789C157.709 135.085 158.672 129.343 160.307 129.343C161.36 129.343 161.92 130.823 162.345 132.303C162.815 133.963 163.286 136.004 162.995 137.732V137.754Z" fill="white"/>
<path d="M176.346 176.165C176.951 175.985 178.138 175.963 178.743 175.941C179.415 175.941 180.064 175.896 180.736 175.851C181.923 175.761 183.155 175.716 184.141 174.954C185.104 174.213 185.507 173.092 185.462 171.881C185.44 171.23 185.171 169.772 183.581 169.211C182.326 168.763 180.355 168.651 179.683 168.628C178.34 168.561 173.994 168.606 171.665 168.718C171.015 168.74 170.209 168.83 169.582 169.01C168.149 169.458 167.297 170.737 167.297 173.496C167.297 174.842 167.23 211.246 167.253 211.897C167.253 212.547 167.253 213.22 167.365 213.87C167.544 215.014 168.081 216.091 169.089 216.697C170.164 217.347 171.419 217.347 172.628 217.37C175.383 217.437 178.048 217.414 180.758 217.37C181.386 217.37 182.035 217.37 182.64 217.19C183.2 217.056 183.737 216.786 184.185 216.45C185.148 215.71 185.529 214.566 185.395 213.399C185.328 212.839 185.148 212.323 184.812 211.874C184.029 210.797 182.259 210.483 181.632 210.416C180.982 210.326 178.384 210.214 177.735 210.147C177.13 210.08 176.234 209.99 175.719 209.541C174.935 208.824 174.756 207.859 174.689 206.805C174.644 206.132 174.689 201.399 174.689 200.726C174.689 200.098 174.621 198.685 175.159 197.99C175.876 197.048 177.175 196.958 177.623 196.891C178.272 196.778 178.922 196.734 179.571 196.666C180.199 196.599 180.915 196.554 181.52 196.375C182.595 196.038 183.536 195.5 183.894 194.221C184.23 193.01 184.118 191.776 183.379 190.902C182.886 190.318 182.461 190.072 181.744 189.847C181.117 189.668 180.467 189.578 179.84 189.489C179.168 189.399 176.413 189.287 175.697 188.748C174.801 188.075 174.801 187.223 174.689 186.214C174.621 185.563 174.756 179.642 174.756 178.587C174.756 177.219 175.226 176.434 176.369 176.12L176.346 176.165Z" fill="white"/>
</svg>
