<svg width="2786" height="2487" viewBox="0 0 2786 2487" fill="none" xmlns="http://www.w3.org/2000/svg">
<path d="M2526.94 169.147C2303.67 -19.7084 1966.82 -32.6142 1758.61 44.8208C1577.06 112.791 1506.08 183.343 1429.08 245.721C1421.76 251.314 1407.14 263.359 1392.94 263.359C1378.74 263.359 1363.69 251.744 1356.8 245.721C1279.8 183.343 1208.82 112.361 1027.27 44.8208C819.059 -33.0444 481.786 -20.1386 258.944 169.147C41.6952 353.27 -17.6719 610.956 4.2681 847.993C21.9061 1038.57 89.447 1195.59 175.056 1329.81C219.796 1400.36 327.775 1530.71 392.305 1600.4C649.992 1878.31 865.52 2068.45 1093.09 2258.6C1163.22 2317.11 1337.88 2459.07 1347.34 2465.95C1358.96 2474.13 1374.01 2486.17 1392.51 2486.17C1411.01 2486.17 1426.07 2474.13 1437.68 2465.95C1447.58 2459.07 1621.8 2317.11 1691.93 2258.6C1919.93 2068.45 2135.03 1878.31 2392.72 1600.4C2457.25 1530.71 2565.22 1399.93 2609.96 1329.81C2695.57 1195.59 2763.11 1038.57 2780.75 847.993C2802.69 610.956 2743.76 353.27 2526.08 169.147H2526.94Z" fill="#1C1C1C"/>
</svg>
